<svg xmlns="http://www.w3.org/2000/svg" viewBox="0 0 24 24" width="24" height="24" fill="none" stroke-linecap="round" stroke-linejoin="round"><path d="M3.5 8 V5 A1.5 1.5 0 0 1 5 3.5 H8 M16 3.5 H19 A1.5 1.5 0 0 1 20.5 5 V8 M20.5 16 V19 A1.5 1.5 0 0 1 19 20.5 H16 M8 20.5 H5 A1.5 1.5 0 0 1 3.5 19 V16" fill="none" stroke="#1E1C1A" stroke-width="1.5"/><rect x="7" y="7" width="3.6" height="3.6" rx="0.8" fill="none" stroke="#1E1C1A" stroke-width="1.5"/><rect x="13.4" y="7" width="3.6" height="3.6" rx="0.8" fill="none" stroke="#1E1C1A" stroke-width="1.5"/><rect x="7" y="13.4" width="3.6" height="3.6" rx="0.8" fill="none" stroke="#1E1C1A" stroke-width="1.5"/><circle cx="14.4" cy="14.4" r="0.9" fill="#1E1C1A"/><circle cx="16.9" cy="16.9" r="0.9" fill="#1E1C1A"/><circle cx="16.9" cy="14.4" r="0.9" fill="#1E1C1A"/><circle cx="14.4" cy="16.9" r="0.9" fill="#1E1C1A"/></svg>